<svg xmlns="http://www.w3.org/2000/svg" viewBox="0 0 64 64">
  <!-- Toothpick -->
  <line x1="32" y1="4" x2="32" y2="16" stroke="#6B4226" stroke-width="2"/>
  <circle cx="32" cy="4" r="3" fill="#00BFFF"/>

  <!-- Top bread slice with sesame seeds -->
  <polygon points="16,16 48,16 56,22 24,22" fill="#F4E0B2" stroke="#C9B079" stroke-width="1"/>
  <circle cx="22" cy="18" r="0.8" fill="#E5C87A"/>
  <circle cx="28" cy="19" r="0.8" fill="#E5C87A"/>
  <circle cx="34" cy="17.5" r="0.8" fill="#E5C87A"/>
  <circle cx="40" cy="19" r="0.8" fill="#E5C87A"/>
  <circle cx="45" cy="18" r="0.8" fill="#E5C87A"/>

  <!-- Lettuce (wavy edge) -->
  <polygon points="18,22 50,22 56,27 24,27" fill="#6DBD4B" />
  <circle cx="20" cy="24.5" r="0.8" fill="#4C9A2A"/>
  <circle cx="30" cy="25" r="0.8" fill="#4C9A2A"/>
  <circle cx="40" cy="24.5" r="0.8" fill="#4C9A2A"/>

  <!-- Tomato slice (red with darker accents) -->
  <polygon points="18,27 50,27 56,32 24,32" fill="#E94B35"/>
  <circle cx="28" cy="29.5" r="1" fill="#C03025"/>
  <circle cx="38" cy="30" r="1" fill="#C03025"/>

  <!-- Bacon/Ham (striped) -->
  <polygon points="18,32 50,32 56,37 24,37" fill="#B94E48"/>
  <line x1="20" y1="33.5" x2="54" y2="33.5" stroke="#922E2A" stroke-width="1"/>
  <line x1="22" y1="35.5" x2="56" y2="35.5" stroke="#922E2A" stroke-width="1"/>

  <!-- Cheese -->
  <polygon points="18,37 50,37 56,42 24,42" fill="#FFD84D"/>
  <line x1="20" y1="39.5" x2="54" y2="39.5" stroke="#E5B800" stroke-width="1"/>

  <!-- Bottom bread slice -->
  <polygon points="16,42 48,42 56,48 24,48" fill="#F4E0B2" stroke="#C9B079" stroke-width="1"/>
</svg>
